<svg xmlns="http://www.w3.org/2000/svg" xmlns:xlink="http://www.w3.org/1999/xlink" viewBox="0 0 100 125" version="1.1" x="0px" y="0px">
<!-- <title>Artboard 1 Copy 105</title>
<desc>Created with Sketch.</desc> -->
    <g stroke="none" stroke-width="1" fill="none" fill-rule="evenodd">
        <g fill="#000000">
            <path d="M32,35.0020853 L32,35.0020853 L32,64.9979147 C32,74.9433611 40.0571206,83 50,83 C59.9427143,83 68,74.9412747 68,64.9979147 L68,35.0020853 C68,25.0566389 59.9428794,17 50,17 C40.0572857,17 32,25.0587253 32,35.0020853 L32,35.0020853 Z M28,35.0020853 C28,22.8506691 37.847064,13 50,13 C62.1502645,13 72,22.8457461 72,35.0020853 L72,64.9979147 C72,77.1493309 62.152936,87 50,87 C37.8497355,87 28,77.1542539 28,64.9979147 L28,35.0020853 L28,35.0020853 Z"/>
            <path d="M48,29.0085302 C48,27.8992496 48.8877296,27 50,27 C51.1045695,27 52,27.9019504 52,29.0085302 L52,36.9914698 C52,38.1007504 51.1122704,39 50,39 C48.8954305,39 48,38.0980496 48,36.9914698 L48,29.0085302 Z"/>
            <path d="M50,71.1715729 L58.5857864,62.5857864 C59.366835,61.8047379 60.633165,61.8047379 61.4142136,62.5857864 C62.1952621,63.366835 62.1952621,64.633165 61.4142136,65.4142136 L51.4142136,75.4142136 C51.0236893,75.8047379 50.5118446,76 50,76 C49.4881554,76 48.9763107,75.8047379 48.5857864,75.4142136 L38.5857864,65.4142136 C37.8047379,64.633165 37.8047379,63.366835 38.5857864,62.5857864 C39.366835,61.8047379 40.633165,61.8047379 41.4142136,62.5857864 L50,71.1715729 Z"/>
        </g>
    </g>
</svg>